<svg width="40" height="40" viewBox="0 0 40 40" fill="none" xmlns="http://www.w3.org/2000/svg">
<path d="M8.01 31.14C11.85 26.48 16.02 22.32 16.02 16.01C16.03 11.59 12.44 8 8.01 8C3.59 8 0 11.59 0 16.01C0 22.32 4.17 26.48 8.01 31.14Z" fill="#E30613"/>
<path d="M2.36035 20.3802C2.42035 20.3402 2.49035 20.3002 2.55035 20.2402C3.63035 19.1902 4.71035 18.1302 5.79035 17.0702C5.82035 17.0402 5.85035 17.0202 5.88035 16.9902L6.28035 17.3602C6.18035 17.4302 6.10035 17.4802 6.03035 17.5502C5.10035 18.4502 4.18035 19.3602 3.25035 20.2602C3.13035 20.3802 3.11035 20.4502 3.25035 20.5802C3.64035 20.9602 4.03035 21.3602 4.41035 21.7602C4.52035 21.8702 4.59035 21.8702 4.68035 21.7602C4.75035 21.6702 4.83035 21.6002 4.95035 21.4802L4.39035 21.0502L4.68035 20.7402L5.16035 21.3102L5.48035 20.9002L4.71035 20.2102L5.01035 19.9502L5.75035 20.7002C5.90035 20.5502 6.02035 20.4402 6.13035 20.3202C6.15035 20.2902 6.13035 20.1902 6.11035 20.1602C5.98035 20.0302 5.84035 19.9102 5.67035 19.7602L5.96035 19.4702L6.39035 19.9902C6.46035 19.9802 6.48035 19.9802 6.48035 19.9702C6.69368 19.7969 6.70369 19.6135 6.51035 19.4202C6.37035 19.2802 6.23035 19.1302 6.09035 18.9902C6.08035 18.9802 6.07035 18.9602 6.06035 18.9202L6.31035 18.6902L7.01035 19.4302C7.30369 19.1969 7.33368 18.9569 7.10035 18.7102C7.05035 18.6602 7.00035 18.6002 6.93035 18.5302L7.17035 18.3502L8.04035 19.1702L4.53035 22.6102C4.39035 22.4602 4.26035 22.3102 4.13035 22.1802C3.58035 21.6202 3.04035 21.0702 2.49035 20.5202C2.46035 20.4902 2.42035 20.4602 2.38035 20.4302V20.3902L2.36035 20.3802Z" fill="white"/>
<path d="M3.64012 14.2102L5.32012 12.5502C5.32012 12.5502 5.40012 12.6202 5.44012 12.6602C7.33012 14.5502 9.22012 16.4402 11.1001 18.3402C11.1801 18.4202 11.2501 18.5302 11.2901 18.6402C11.6101 19.5202 11.9301 20.4002 12.2601 21.3202C11.9001 21.1602 11.5701 21.0202 11.2401 20.8802C10.7401 20.6602 10.2501 20.4502 9.75012 20.2202C9.61012 20.1602 9.48012 20.0702 9.38012 19.9602C7.98012 18.5602 6.58012 17.1602 5.17012 15.7602C4.71012 15.3002 4.25012 14.8402 3.78012 14.3802C3.72012 14.3202 3.67012 14.2602 3.62012 14.2102H3.64012ZM9.53012 19.7502L9.50012 19.8202C9.60012 19.8902 9.69012 19.9802 9.79012 20.0302C10.1401 20.1902 10.4901 20.3402 10.8401 20.4902C11.2501 20.6702 11.2501 20.6702 11.5501 20.3302C11.6001 20.2702 11.6401 20.1402 11.6101 20.0702C11.4501 19.5902 11.2801 19.1202 11.1001 18.6502C11.0701 18.5702 11.0001 18.5102 10.9501 18.4402L10.8801 18.4602V19.2602L10.2201 19.1602L10.3601 19.7802L9.52012 19.7402L9.53012 19.7502ZM5.27012 13.1102C4.94012 13.4402 4.61012 13.7702 4.29012 14.1102C4.26012 14.1402 4.27012 14.2502 4.30012 14.2902C4.41012 14.4202 4.54012 14.5502 4.67012 14.6602C4.71012 14.6902 4.81012 14.7002 4.83012 14.6802C5.17012 14.3502 5.51012 14.0202 5.84012 13.6902L5.26012 13.1202L5.27012 13.1102Z" fill="white"/>
<path d="M10.3004 16.9202L9.52039 16.1102L9.79039 15.8902L10.1404 16.3502L10.1904 16.3002C10.1904 16.3002 10.2204 16.3002 10.2304 16.2902C10.4304 16.1235 10.4404 15.9502 10.2604 15.7702C10.1304 15.6302 9.99039 15.4902 9.84039 15.3302L10.1404 15.1202L10.7304 15.7802C11.0637 15.5269 11.1004 15.2669 10.8404 15.0002C10.8404 15.0002 10.8004 14.9502 10.7504 14.8902L11.0204 14.6002C11.1204 14.7402 11.1804 14.8202 11.2404 14.9002C11.3004 14.9802 11.3504 15.0502 11.4004 15.1202C11.7904 14.8202 11.7904 14.8102 11.4904 14.5102C11.3704 14.3902 11.2304 14.2802 11.0804 14.1502L11.3404 13.8702L11.9904 14.5702L12.5104 14.0802C12.4504 14.0202 12.4104 13.9602 12.3604 13.9102C11.9804 13.5202 11.5904 13.1402 11.2204 12.7402C11.1104 12.6202 11.0404 12.6302 10.9304 12.7402C10.1604 13.5102 9.38039 14.2702 8.61039 15.0302C8.57039 15.0702 8.53039 15.1002 8.48039 15.1402L8.15039 14.7702L11.0204 11.9502L13.2304 14.0502L10.2904 16.9402L10.3004 16.9202Z" fill="white"/>
</svg>
