<svg width="40" height="40" viewBox="0 0 40 40" fill="none" xmlns="http://www.w3.org/2000/svg">
<path d="M21.6732 13.1831L22.3875 15.9146C22.5646 16.6004 22.7646 17.2804 22.9818 17.9547C23.6332 20.0176 24.439 22.0291 25.2562 24.0406C25.2676 24.0749 25.2847 24.1035 25.2962 24.1378C26.1305 26.2007 25.7133 28.6522 24.039 30.3265C22.9247 31.4409 21.4617 32.0009 19.9988 32.0009C18.5359 32.0009 17.073 31.4409 15.9587 30.3265C14.8444 29.2122 14.2844 27.7493 14.2844 26.2864C14.2844 25.555 14.4215 24.8235 14.7015 24.1378C14.7129 24.1035 14.7301 24.0749 14.7415 24.0406C15.5587 22.0291 16.3644 20.0176 17.0159 17.9547C17.233 17.2804 17.433 16.6004 17.6102 15.9146L18.3245 13.1831" stroke="black" stroke-width="1.5" stroke-linecap="round" stroke-linejoin="round"/>
<path d="M18.3243 13.1829L16.1985 9.49707H18.9129" stroke="black" stroke-width="1.5" stroke-linecap="round" stroke-linejoin="round"/>
<path d="M21.0848 9.49707H23.7992L21.6734 13.1829" stroke="black" stroke-width="1.5" stroke-linecap="round" stroke-linejoin="round"/>
<path d="M18.9131 9.49719C18.8788 9.38862 18.856 9.26861 18.856 9.1429C18.856 8.5143 19.3703 8 19.9989 8C20.6274 8 21.1417 8.5143 21.1417 9.1429C21.1417 9.26861 21.1246 9.38862 21.0846 9.49719" stroke="black" stroke-width="1.5" stroke-linecap="round" stroke-linejoin="round"/>
<path d="M14.7415 24.0404L5.364 17.4802C4.62112 16.9601 5.10685 15.7887 5.99831 15.9544L17.0158 17.9545" stroke="black" stroke-width="1.5" stroke-linecap="round" stroke-linejoin="round"/>
<path d="M22.9816 17.9545L33.9991 15.9544C34.8906 15.7887 35.382 16.9601 34.6335 17.4802L25.256 24.0404" stroke="black" stroke-width="1.5" stroke-linecap="round" stroke-linejoin="round"/>
<path d="M17.713 28.0005H22.2846" stroke="black" stroke-width="1.5" stroke-linecap="round" stroke-linejoin="round"/>
</svg>
