<svg width="40" height="40" viewBox="0 0 40 40" fill="none" xmlns="http://www.w3.org/2000/svg">
<path d="M16.2298 13.0002H4.62697C3.72842 13.0002 3 13.7286 3 14.6272V26.2301C3 27.1286 3.72842 27.857 4.62697 27.857H16.2298C17.1284 27.857 17.8568 27.1286 17.8568 26.2301V14.6272C17.8568 13.7286 17.1284 13.0002 16.2298 13.0002Z" fill="#005D9F"/>
<path d="M6.29688 24.0897V16.7684H7.6955L10.821 21.9347H10.0789L13.1473 16.7684H14.5459V24.0897H12.976V19.1946H13.2615L10.8067 23.3048H10.0361L7.53851 19.1946H7.8953V24.0897H6.29688Z" fill="white"/>
<path d="M34.7826 13.0002H23.1797C22.2812 13.0002 21.5527 13.7286 21.5527 14.6272V26.2301C21.5527 27.1286 22.2812 27.857 23.1797 27.857H34.7826C35.6811 27.857 36.4096 27.1286 36.4096 26.2301V14.6272C36.4096 13.7286 35.6811 13.0002 34.7826 13.0002Z" fill="#005D9F"/>
<path d="M31.7712 15.7119H26.1767C25.4594 15.7119 24.8779 16.2934 24.8779 17.0107V23.1617C24.8779 23.879 25.4594 24.4605 26.1767 24.4605H31.7712C32.4884 24.4605 33.0699 23.879 33.0699 23.1617V17.0107C33.0699 16.2934 32.4884 15.7119 31.7712 15.7119Z" fill="white"/>
<path d="M28.474 17.5816H26.0479V20.3218H28.474V17.5816Z" fill="#005D9F"/>
<path d="M31.9145 17.5816H29.4883V20.3218H31.9145V17.5816Z" fill="#005D9F"/>
<path d="M31.0722 22.7763C31.3796 22.7763 31.6288 22.5271 31.6288 22.2197C31.6288 21.9123 31.3796 21.6631 31.0722 21.6631C30.7648 21.6631 30.5156 21.9123 30.5156 22.2197C30.5156 22.5271 30.7648 22.7763 31.0722 22.7763Z" fill="#005D9F"/>
<path d="M26.8906 22.7763C27.198 22.7763 27.4472 22.5271 27.4472 22.2197C27.4472 21.9123 27.198 21.6631 26.8906 21.6631C26.5832 21.6631 26.334 21.9123 26.334 22.2197C26.334 22.5271 26.5832 22.7763 26.8906 22.7763Z" fill="#005D9F"/>
<path d="M28.4028 23.9753L27.5608 23.3188L25.9053 25.4453H27.2611L28.4028 23.9753Z" fill="white"/>
<path d="M32.0571 25.4453L30.4016 23.3188L29.5596 23.9753L30.7013 25.4453H32.0571Z" fill="white"/>
</svg>
