<svg width="40" height="40" viewBox="0 0 40 40" fill="none" xmlns="http://www.w3.org/2000/svg">
<path d="M13.2298 13H1.62697C0.72842 13 0 13.7284 0 14.627V26.2298C0 27.1284 0.72842 27.8568 1.62697 27.8568H13.2298C14.1284 27.8568 14.8568 27.1284 14.8568 26.2298V14.627C14.8568 13.7284 14.1284 13 13.2298 13Z" fill="#005D9F"/>
<path d="M3.29688 24.0895V16.7681H4.6955L7.821 21.9345H7.07887L10.1473 16.7681H11.5459V24.0895H9.97602V19.1943H10.2615L7.80673 23.3046H7.03606L4.53851 19.1943H4.8953V24.0895H3.29688Z" fill="white"/>
<path d="M31.7826 13H20.1797C19.2812 13 18.5527 13.7284 18.5527 14.627V26.2298C18.5527 27.1284 19.2812 27.8568 20.1797 27.8568H31.7826C32.6811 27.8568 33.4096 27.1284 33.4096 26.2298V14.627C33.4096 13.7284 32.6811 13 31.7826 13Z" fill="#005D9F"/>
<path d="M28.7712 15.7117H23.1767C22.4594 15.7117 21.8779 16.2932 21.8779 17.0104V23.1615C21.8779 23.8788 22.4594 24.4602 23.1767 24.4602H28.7712C29.4884 24.4602 30.0699 23.8788 30.0699 23.1615V17.0104C30.0699 16.2932 29.4884 15.7117 28.7712 15.7117Z" fill="white"/>
<path d="M25.474 17.5814H23.0479V20.3215H25.474V17.5814Z" fill="#005D9F"/>
<path d="M28.9145 17.5814H26.4883V20.3215H28.9145V17.5814Z" fill="#005D9F"/>
<path d="M28.0722 22.7761C28.3796 22.7761 28.6288 22.5269 28.6288 22.2195C28.6288 21.9121 28.3796 21.6629 28.0722 21.6629C27.7648 21.6629 27.5156 21.9121 27.5156 22.2195C27.5156 22.5269 27.7648 22.7761 28.0722 22.7761Z" fill="#005D9F"/>
<path d="M23.8906 22.7761C24.198 22.7761 24.4472 22.5269 24.4472 22.2195C24.4472 21.9121 24.198 21.6629 23.8906 21.6629C23.5832 21.6629 23.334 21.9121 23.334 22.2195C23.334 22.5269 23.5832 22.7761 23.8906 22.7761Z" fill="#005D9F"/>
<path d="M25.4028 23.9751L24.5608 23.3186L22.9053 25.4451H24.2611L25.4028 23.9751Z" fill="white"/>
<path d="M29.0571 25.4451L27.4016 23.3186L26.5596 23.9751L27.7013 25.4451H29.0571Z" fill="white"/>
</svg>
