<svg width="16" height="16" viewBox="0 0 16 16" fill="none" xmlns="http://www.w3.org/2000/svg">
<path d="M10.4467 2H3.89028C3.50916 2 3.2002 2.30896 3.2002 2.69008V11.5205C3.2002 11.9016 3.50916 12.2106 3.89028 12.2106H10.4467C10.8278 12.2106 11.1367 11.9016 11.1367 11.5205V2.69008C11.1367 2.30896 10.8278 2 10.4467 2Z" stroke="white" stroke-linecap="round" stroke-linejoin="round"/>
<path d="M11.137 3.3894H12.2363C12.6161 3.3894 12.9264 3.69971 12.9264 4.07949V13.3099C12.9264 13.6897 12.6161 14 12.2363 14H5.27992C4.90015 14 4.58984 13.6897 4.58984 13.3099V12.2106" stroke="white" stroke-linecap="round" stroke-linejoin="round"/>
<path d="M5.51562 7.15771H8.65162" stroke="white" stroke-linecap="round" stroke-linejoin="round"/>
<path d="M5.51611 8.94714H8.65211" stroke="white" stroke-linecap="round" stroke-linejoin="round"/>
</svg>
