<svg width="21" height="20" viewBox="0 0 21 20" fill="none" xmlns="http://www.w3.org/2000/svg">
<path d="M10.5 3.46667C12.6333 3.46667 12.9 3.46667 13.7667 3.53333C15.9667 3.6 16.9667 4.66667 17.0333 6.8C17.1 7.66667 17.1 7.86667 17.1 10C17.1 12.1333 17.1 12.4 17.0333 13.2C16.9667 15.3333 15.9 16.4 13.7667 16.4667C12.9 16.5333 12.7 16.5333 10.5 16.5333C8.36667 16.5333 8.1 16.5333 7.3 16.4667C5.1 16.4 4.1 15.3333 4.03333 13.2C3.96667 12.3333 3.96667 12.1333 3.96667 10C3.96667 7.86667 3.96667 7.6 4.03333 6.8C4.1 4.66667 5.16667 3.6 7.3 3.53333C8.1 3.46667 8.36667 3.46667 10.5 3.46667ZM10.5 2C8.3 2 8.03333 2 7.23333 2.06667C4.3 2.2 2.7 3.8 2.56667 6.73333C2.5 7.53333 2.5 7.8 2.5 10C2.5 12.2 2.5 12.4667 2.56667 13.2667C2.7 16.2 4.3 17.8 7.23333 17.9333C8.03333 18 8.3 18 10.5 18C12.7 18 12.9667 18 13.7667 17.9333C16.7 17.8 18.3 16.2 18.4333 13.2667C18.5 12.4667 18.5 12.2 18.5 10C18.5 7.8 18.5 7.53333 18.4333 6.73333C18.3 3.8 16.7 2.2 13.7667 2.06667C12.9667 2 12.7 2 10.5 2ZM10.5 5.86667C8.23333 5.86667 6.36667 7.73333 6.36667 10C6.36667 12.2667 8.23333 14.1333 10.5 14.1333C12.7667 14.1333 14.6333 12.2667 14.6333 10C14.6333 7.73333 12.7667 5.86667 10.5 5.86667ZM10.5 12.6667C9.03333 12.6667 7.83333 11.4667 7.83333 10C7.83333 8.53333 9.03333 7.33333 10.5 7.33333C11.9667 7.33333 13.1667 8.53333 13.1667 10C13.1667 11.4667 11.9667 12.6667 10.5 12.6667ZM14.7667 4.8C14.2333 4.8 13.8333 5.2 13.8333 5.73333C13.8333 6.26667 14.2333 6.66667 14.7667 6.66667C15.3 6.66667 15.7 6.26667 15.7 5.73333C15.7 5.2 15.3 4.8 14.7667 4.8Z" fill="#275C9B"/>
</svg>
