<svg width="98" height="46" viewBox="0 0 98 46" fill="none" xmlns="http://www.w3.org/2000/svg">
<path d="M39.273 31.6987H39.5743C40.177 31.6987 40.5787 32.2009 40.5787 32.7031V43.35C40.5787 43.9526 40.0765 44.3544 39.5743 44.3544H39.273C38.6703 44.3544 38.2686 43.8522 38.2686 43.35V32.7031C38.2686 32.1005 38.6703 31.6987 39.273 31.6987Z" fill="black"/>
<path d="M95.219 38.0265C95.219 35.5154 93.1097 33.5066 90.5987 33.5066C88.0876 33.5066 86.0788 35.6159 86.0788 38.1269C86.0788 40.638 88.1881 42.6468 90.6991 42.6468C93.2102 42.7473 95.219 40.7384 95.3194 38.2274C95.219 38.2274 95.219 38.1269 95.219 38.0265ZM97.5291 38.0265C97.6296 41.8433 94.7168 45.0574 90.9 45.1579C87.0832 45.2583 83.8691 42.3455 83.7686 38.5287C83.6682 34.7119 86.581 31.4978 90.3978 31.3973C90.4982 31.3973 90.5987 31.3973 90.6991 31.3973C94.315 31.1965 97.4287 34.0088 97.5291 37.6247C97.5291 37.7252 97.5291 37.8256 97.5291 38.0265Z" fill="black"/>
<path d="M76.9385 31.3976C75.0301 31.2971 73.2221 32.3016 72.4186 34.1095C72.1172 33.4064 71.615 32.8038 71.0124 32.3016C70.5102 31.8998 69.9075 31.6989 69.3049 31.5985C68.9031 31.498 68.4009 31.3976 67.9991 31.3976C67.296 31.3976 66.6934 31.498 65.9903 31.6989C65.8899 31.6989 65.8899 31.6989 65.7894 31.7993C65.689 31.7993 65.689 31.8998 65.5885 31.8998C65.3877 32.0002 65.2872 32.0002 65.0863 32.1007C64.6846 32.3016 64.3832 32.6029 64.0819 32.9042C64.0819 32.9042 64.0819 32.9042 63.9815 33.0046C63.881 33.1051 63.7806 33.306 63.6801 33.4064C63.6801 33.5069 63.4793 33.7077 63.4793 33.7077C63.4793 33.7077 63.2784 34.0091 63.2784 34.1095C62.5753 32.402 60.8678 31.2971 58.9594 31.2971C57.051 31.1967 55.243 32.2011 54.4395 34.0091C54.1382 33.306 53.636 32.7033 53.0333 32.2011C52.1293 31.5985 51.1249 31.2971 50.0201 31.2971C48.2121 31.1967 46.5046 32.1007 45.7011 33.6073V32.2011C45.7011 31.8998 45.5002 31.5985 45.1989 31.498H45.0984H44.2949C43.9936 31.498 43.6922 31.6989 43.5918 32.0002V32.1007V43.4506C43.5918 43.7519 43.7927 44.0532 44.094 44.1537H44.1944H45.1989C45.5002 44.1537 45.8015 43.9528 45.902 43.6515V43.551V37.0223C45.902 35.0135 47.0068 33.306 49.317 33.306C51.4262 33.306 52.4307 34.8126 52.4307 37.0223V43.551C52.4307 43.8524 52.6316 44.1537 52.9329 44.2541H53.0333H54.0377C54.3391 44.2541 54.6404 44.0532 54.7408 43.7519V43.6515V37.1228C54.7408 34.913 55.8457 33.4064 58.1558 33.4064C60.2651 33.4064 61.2695 34.913 61.2695 37.1228V43.6515C61.2695 43.7519 61.2695 43.8524 61.2695 43.9528V44.0532C61.2695 44.0532 61.2695 44.0532 61.2695 44.1537L61.37 44.2541C61.37 44.2541 61.4704 44.2541 61.4704 44.3546H61.5709C61.6713 44.3546 61.6713 44.3546 61.7718 44.3546H62.7762C63.0775 44.3546 63.3788 44.1537 63.4793 43.8524V43.7519V37.1228V37.0223C63.5797 35.1139 64.5841 33.5069 66.8943 33.5069C67.1956 33.5069 67.5974 33.5069 67.8987 33.6073C69.4053 34.0091 70.1084 35.3148 70.1084 37.2232V43.7519C70.1084 44.0532 70.3093 44.3546 70.6106 44.455H70.7111H71.7155C72.0168 44.455 72.3181 44.2541 72.4186 43.9528V43.8524V37.3236C72.4186 35.1139 73.5234 33.6073 75.8336 33.6073C77.9429 33.6073 78.9473 35.1139 78.9473 37.3236V43.8524C78.9473 44.1537 79.1482 44.455 79.4495 44.5554H79.5499H80.5544C80.8557 44.5554 81.157 44.3546 81.2575 44.0532V43.9528V37.0223C81.6592 33.5069 79.8513 31.3976 76.9385 31.3976Z" fill="black"/>
<path d="M53.6358 13.7197H53.9371C54.5397 13.7197 54.9415 14.2219 54.9415 14.7241V25.371C54.9415 25.9736 54.4393 26.3754 53.9371 26.3754H53.6358C53.0331 26.3754 52.6313 25.8732 52.6313 25.371V14.7241C52.6313 14.2219 53.1336 13.7197 53.6358 13.7197Z" fill="black"/>
<path d="M59.9637 9.30029H61.0686C61.3699 9.30029 61.6712 9.60162 61.6712 9.90294V13.7197H64.8854C65.2871 13.7197 65.5885 14.0211 65.5885 14.4228V14.925C65.5885 15.3268 65.2871 15.6281 64.8854 15.6281H61.6712V21.7551C61.6712 23.6635 62.3743 24.7683 63.7805 24.7683C64.2827 24.7683 64.7849 24.6679 65.2871 24.467C65.3876 24.467 65.3876 24.467 65.488 24.467C65.6889 24.467 65.8898 24.6679 65.9902 24.8688L66.2916 25.4714C66.2916 25.5719 66.392 25.6723 66.392 25.7727C66.392 25.9736 66.1911 26.1745 65.9902 26.2749C65.1867 26.5763 64.3832 26.7772 63.5796 26.7772C60.9682 26.7772 59.4615 24.9692 59.4615 22.1568V15.6281H57.8545C57.4527 15.6281 57.1514 15.3268 57.1514 14.925V14.4228C57.1514 14.0211 57.4527 13.7197 57.8545 13.7197H59.562V9.90294C59.3611 9.60162 59.6624 9.30029 59.9637 9.30029Z" fill="black"/>
<path d="M78.0434 16.8336C77.9429 16.9341 77.742 17.0345 77.5411 17.0345C77.3403 17.0345 77.1394 16.9341 76.9385 16.7332C76.8381 16.6327 76.6372 16.5323 76.5367 16.4319C75.6328 15.8292 74.6283 15.5279 73.6239 15.5279C71.1129 15.6283 69.104 17.7376 69.2045 20.3491C69.3049 22.7597 71.2133 24.6681 73.6239 24.7685C74.4275 24.7685 75.231 24.5676 75.9341 24.2663C76.4363 24.0654 76.8381 23.7641 77.2398 23.3623C77.3403 23.2619 77.4407 23.2619 77.6416 23.1614C77.8425 23.1614 77.9429 23.2619 78.0434 23.3623L78.5456 23.8645C78.7464 23.965 78.7465 24.1659 78.8469 24.3668C78.8469 24.5676 78.7465 24.6681 78.646 24.7685C78.2442 25.1703 77.8425 25.5721 77.3403 25.8734C76.2354 26.476 74.9297 26.7774 73.7244 26.7774C70.1085 26.7774 67.0952 23.7641 67.0952 20.1482C67.0952 16.5323 70.1085 13.519 73.7244 13.519C74.6283 13.519 75.5323 13.7199 76.4363 14.0213C77.3403 14.3226 78.0434 14.8248 78.7465 15.5279C78.8469 15.6283 78.9473 15.7288 78.9473 15.9296C78.9473 16.1305 78.8469 16.3314 78.646 16.4319L78.0434 16.8336Z" fill="black"/>
<path d="M83.4669 15.6281C84.3709 14.1215 86.0784 13.318 87.8863 13.5188C91 13.5188 92.9084 15.6281 92.9084 18.8423V25.7727C92.9084 26.1745 92.6071 26.4758 92.2053 26.4758H91.2009C90.7991 26.4758 90.4978 26.1745 90.4978 25.7727V19.244C90.4978 17.0343 89.2925 15.5277 87.1832 15.5277C85.2749 15.4272 83.6678 16.8334 83.5673 18.7418C83.5673 18.9427 83.5673 19.1436 83.5673 19.244V25.7727C83.5673 26.1745 83.266 26.4758 82.8642 26.4758H81.8598C81.4581 26.4758 81.1567 26.1745 81.1567 25.7727V9.90294C81.1567 9.60162 81.4581 9.30029 81.7594 9.30029H82.7638C83.0651 9.30029 83.3665 9.60162 83.3665 9.90294L83.4669 15.6281Z" fill="black"/>
<path d="M55.243 10.1044C55.243 10.908 54.6404 11.5106 53.8368 11.5106C53.0333 11.5106 52.4307 10.908 52.4307 10.1044C52.4307 9.30089 53.0333 8.69824 53.8368 8.69824C54.5399 8.79868 55.1426 9.40133 55.243 10.1044Z" fill="black"/>
<path d="M40.478 18.7418V11.3091H43.893C46.0023 11.3091 48.0111 12.3135 48.0111 15.0255C48.0111 17.7374 46.1027 18.7418 43.893 18.7418H40.478ZM40.478 20.6502H43.5917C46.8058 20.6502 50.2208 19.4449 50.2208 15.0255C50.2208 10.606 46.8058 9.30029 43.5917 9.30029H38.7705C38.2683 9.30029 38.0674 9.50118 38.0674 10.0034V25.6723C38.0674 26.1745 38.2683 26.3754 38.7705 26.3754H39.6744C40.1767 26.3754 40.3775 26.1745 40.3775 25.6723L40.478 20.6502Z" fill="black"/>
<path d="M2.81237 44.3545H0V2.87208C0 1.36546 1.2053 0.160156 2.71193 0.160156H16.0707C24.2065 0.160156 30.8356 6.78931 30.8356 14.9251V16.03C30.8356 23.4626 25.3113 29.69 17.9791 30.6944L13.4592 42.5466C12.957 43.9528 11.3499 44.6558 9.94373 44.1536C8.73843 43.7519 8.03534 42.7474 8.03534 41.6426V11.0079C8.03534 9.70212 9.1402 8.59726 10.4459 8.59726H16.1711C19.6866 8.59726 22.499 11.4096 22.499 14.9251V15.0255C22.499 18.6414 19.5861 21.5542 16.0707 21.5542H15.468V18.7419H16.0707C17.0751 18.7419 17.9791 18.3401 18.6822 17.637C19.3853 16.9339 19.787 16.03 19.787 15.0255V14.9251C19.787 12.9163 18.18 11.4096 16.2716 11.4096H10.9482V41.5421L16.0707 28.083L16.9747 27.9825C23.3025 27.5807 28.1237 22.3578 28.2241 16.03V14.9251C28.2241 8.29594 22.9007 2.97252 16.2716 2.97252H2.81237V44.3545Z" fill="black"/>
</svg>
