<svg width="40" height="40" viewBox="0 0 40 40" fill="none" xmlns="http://www.w3.org/2000/svg">
<path d="M14.7 23.3333C14.68 23.2266 14.6667 23.1133 14.6667 23C14.6667 21.34 16.9067 20 19.6667 20C22.4267 20 24.6667 21.34 24.6667 23C24.6667 23.1133 24.6533 23.2266 24.6333 23.3333M19.6667 4C14.1467 4 9.66669 8.47999 9.66669 14C9.66669 15.5 10 17.0666 10.5934 18.56C11.3 20.3533 12.3867 22.0266 13.7267 23.3333C14.4 23.9866 15.1333 24.5466 15.9133 24.9733C17.0733 25.6266 18.34 26 19.6667 26C20.9933 26 22.2733 25.62 23.4333 24.9666C24.2133 24.54 24.94 23.98 25.6067 23.3333C26.9467 22.0266 28.0333 20.3533 28.74 18.56C29.3333 17.0666 29.6666 15.5 29.6666 14C29.6666 8.47999 25.1933 4 19.6667 4Z" stroke="black" stroke-width="1.5" stroke-linecap="round" stroke-linejoin="round"/>
<path d="M14.6998 23.3335C14.8132 23.9602 15.2532 24.5335 15.9132 24.9735C16.7265 25.5335 17.8798 25.9068 19.1732 25.9802C19.3332 25.9935 19.4998 26.0002 19.6665 26.0002C19.8332 26.0002 19.9998 25.9935 20.1665 25.9802C21.4665 25.9068 22.6131 25.5335 23.4331 24.9668C24.0865 24.5268 24.5198 23.9602 24.6331 23.3335" stroke="black" stroke-width="1.5" stroke-linecap="round" stroke-linejoin="round"/>
<path d="M24.9999 16.0002H14.3333L13.6666 11.3335H25.6666L24.9999 16.0002Z" stroke="black" stroke-width="1.5" stroke-linecap="round" stroke-linejoin="round"/>
<path d="M10.5933 18.5601L9.17333 23.3334L7.18666 30L6 34" stroke="black" stroke-width="1.5" stroke-linecap="round" stroke-linejoin="round"/>
<path d="M28.7402 18.5601L30.1602 23.3334L32.1468 30L33.3335 34" stroke="black" stroke-width="1.5" stroke-linecap="round" stroke-linejoin="round"/>
<path d="M32.1468 30H7.18683" stroke="black" stroke-width="1.5" stroke-linecap="round" stroke-linejoin="round"/>
<path d="M9.17316 23.3335H13.7265H14.6998" stroke="black" stroke-width="1.5" stroke-linecap="round" stroke-linejoin="round"/>
<path d="M24.6334 23.3335H25.6068H30.1601" stroke="black" stroke-width="1.5" stroke-linecap="round" stroke-linejoin="round"/>
</svg>
