<svg width="21" height="20" viewBox="0 0 21 20" fill="none" xmlns="http://www.w3.org/2000/svg">
<path d="M18.5 4.53933C17.9113 4.80067 17.2787 4.97667 16.6147 5.056C17.2927 4.65 17.8133 4.00667 18.058 3.24C17.424 3.616 16.7213 3.88933 15.9733 4.03667C15.3753 3.39867 14.5213 3 13.5773 3C11.458 3 9.90067 4.97733 10.3793 7.03C7.652 6.89333 5.23333 5.58667 3.614 3.60067C2.754 5.076 3.168 7.006 4.62933 7.98333C4.092 7.966 3.58533 7.81867 3.14333 7.57267C3.10733 9.09333 4.19733 10.516 5.776 10.8327C5.314 10.958 4.808 10.9873 4.29333 10.8887C4.71067 12.1927 5.92267 13.1413 7.36 13.168C5.98 14.25 4.24133 14.7333 2.5 14.528C3.95267 15.4593 5.67867 16.0027 7.532 16.0027C13.6267 16.0027 17.07 10.8553 16.862 6.23867C17.5033 5.77533 18.06 5.19733 18.5 4.53933Z" fill="#275C9B"/>
</svg>
