<svg width="40" height="40" viewBox="0 0 40 40" fill="none" xmlns="http://www.w3.org/2000/svg">
<path d="M8.01 31.14C11.85 26.48 16.02 22.32 16.02 16.01C16.03 11.59 12.44 8 8.01 8C3.59 8 0 11.59 0 16.01C0 22.32 4.17 26.48 8.01 31.14Z" fill="#005D9F"/>
<path d="M8.01023 15.1301H11.8802L12.2902 20.5401H8.01023H3.74023L4.15023 15.1301H8.01023Z" fill="white"/>
<path d="M10.0405 16.14C9.73047 14.16 9.52047 12.54 8.01047 12.54C6.50047 12.54 6.30047 14.16 5.98047 16.14" stroke="white" stroke-width="0.75" stroke-miterlimit="10"/>
<path d="M20.01 31.14C23.85 26.48 28.02 22.32 28.02 16.01C28.03 11.59 24.44 8 20.01 8C15.59 8 12 11.59 12 16.01C12 22.32 16.17 26.48 20.01 31.14Z" fill="#3AAA35"/>
<path d="M25.7697 16.2102H24.7597V16.1802C24.7597 13.6802 22.7397 11.6602 20.2397 11.6602C17.7397 11.6602 15.7197 13.6802 15.7197 16.1802H16.8497C16.8497 14.3102 18.3697 12.7902 20.2397 12.7902C22.1097 12.7902 23.6297 14.3102 23.6297 16.1802V16.2102H14.7197L15.9097 20.0802L16.0097 20.4002V20.4202C16.1597 20.8702 16.5897 21.2002 17.0897 21.2002H23.3797C23.8797 21.2002 24.3097 20.8702 24.4597 20.4202V20.4002L24.5697 20.0802L25.4897 17.0902L25.7697 16.2102ZM23.3897 20.0802H17.0997L16.8697 19.3502H23.6097L23.3897 20.0802ZM23.9597 18.2202H16.5197L16.2497 17.3502H24.2297L23.9597 18.2202Z" fill="white"/>
</svg>
