<svg width="40" height="40" viewBox="0 0 40 40" fill="none" xmlns="http://www.w3.org/2000/svg">
<path d="M8.01 31.14C11.85 26.48 16.02 22.32 16.02 16.01C16.03 11.59 12.44 8 8.01 8C3.59 8 0 11.59 0 16.01C0 22.32 4.17 26.48 8.01 31.14Z" fill="#005D9F"/>
<path d="M8.01023 15.1301H11.8802L12.2902 20.5401H8.01023H3.74023L4.15023 15.1301H8.01023Z" fill="white"/>
<path d="M10.0405 16.14C9.73047 14.16 9.52047 12.54 8.01047 12.54C6.50047 12.54 6.30047 14.16 5.98047 16.14" stroke="white" stroke-width="0.75" stroke-miterlimit="10"/>
<path d="M27.01 31.14C30.85 26.48 35.02 22.32 35.02 16.01C35.03 11.59 31.44 8 27.01 8C22.59 8 19 11.59 19 16.01C19 22.32 23.17 26.48 27.01 31.14Z" fill="#3AAA35"/>
<path d="M32.7697 16.2102H31.7597V16.1802C31.7597 13.6802 29.7397 11.6602 27.2397 11.6602C24.7397 11.6602 22.7197 13.6802 22.7197 16.1802H23.8497C23.8497 14.3102 25.3697 12.7902 27.2397 12.7902C29.1097 12.7902 30.6297 14.3102 30.6297 16.1802V16.2102H21.7197L22.9097 20.0802L23.0097 20.4002V20.4202C23.1597 20.8702 23.5897 21.2002 24.0897 21.2002H30.3797C30.8797 21.2002 31.3097 20.8702 31.4597 20.4202V20.4002L31.5697 20.0802L32.4897 17.0902L32.7697 16.2102ZM30.3897 20.0802H24.0997L23.8697 19.3502H30.6097L30.3897 20.0802ZM30.9597 18.2202H23.5197L23.2497 17.3502H31.2297L30.9597 18.2202Z" fill="white"/>
</svg>
